#tb 0: 1/25
0,          0,          0,        1,   152064, 0x2cfbea30
0,          1,          1,        1,   152064, 0x4c44be5b
0,          2,          2,        1,   152064, 0x87462989
0,          3,          3,        1,   152064, 0x1462194b
0,          4,          4,        1,   152064, 0xe27c80cc
